<?xml version="1.0" encoding="utf-8"?>
<!-- Generator: Adobe Illustrator 16.0.0, SVG Export Plug-In . SVG Version: 6.00 Build 0)  -->
<!DOCTYPE svg PUBLIC "-//W3C//DTD SVG 1.1//EN" "http://www.w3.org/Graphics/SVG/1.1/DTD/svg11.dtd">
<svg version="1.1" id="Layer_1" xmlns="http://www.w3.org/2000/svg" xmlns:xlink="http://www.w3.org/1999/xlink" x="0px" y="0px"
	 width="1024px" height="768px" viewBox="0 0 1024 768" enable-background="new 0 0 1024 768" xml:space="preserve">
<path opacity="0.4" fill="none" d="M868.482-1.361c15.455,9.424,32.909,17.131,52.916,22.582c24.524,6.686,47.299,9,69.166,8.214
	c11.397-0.368,22.524-1.602,33.491-3.507V-1.361H868.482z"/>
<path opacity="0.4" fill="none" stroke="#58595B" stroke-width="0.25" d="M1012.82,432.85
	c-50.016-32.371-64.72-85.815-74.278-144.768c-11.729-9.889-23.346-19.904-34.841-29.965
	C832.804,196.078,766.404,132.386,705.4,86.313C548.743-31.934,340.979-5.518,328.76,89.759
	c-12.193,95.209,181.247,88.239,309.678,111.628c128.421,23.36,170.65,52.562,261.149,253.715
	c31.493,70.018,77.656,122.93,124.468,162.168V440.216C1020.422,437.8,1016.688,435.349,1012.82,432.85z"/>
<path opacity="0.4" fill="none" stroke="#58595B" stroke-width="0.25" d="M351.027,179.81
	c-21.279-1.202-37.565,14.296-36.173,34.854c1.375,20.487,20.109,38.186,41.595,39.292c21.484,1.157,37.499-14.505,35.86-34.923
	C390.761,198.676,372.304,181.145,351.027,179.81z"/>
<path opacity="0.4" fill="none" stroke="#58595B" stroke-width="0.25" d="M199.104,23.701
	c-30.144,5.155-80.842,40.046-81.639,79.518c-2.106,105.308,123.109,102.444,157.391,57.875
	C309.149,116.528,295.554,7.241,199.104,23.701z"/>
<path opacity="0.4" fill="none" stroke="#58595B" stroke-width="0.25" d="M1024.055,25.927c-10.967,1.905-22.094,3.139-33.491,3.507
	c-21.867,0.786-44.642-1.528-69.166-8.214c-20.007-5.45-37.461-13.158-52.916-22.582H745.096
	C799.371,19.108,849.743,44.226,881,87.383c19.107,26.318,30.431,55.926,38.084,86.697c9.462,37.597,13.441,76.89,19.458,114.001
	c27.869,23.497,56.389,46.272,85.514,67.225V25.927z"/>
</svg>
